<?xml version="1.0" encoding="UTF-8"?><!DOCTYPE svg PUBLIC "-//W3C//DTD SVG 1.1//EN" "http://www.w3.org/Graphics/SVG/1.1/DTD/svg11.dtd"><svg xmlns="http://www.w3.org/2000/svg" xmlns:xlink="http://www.w3.org/1999/xlink"><symbol id="btn-arrow-down"><path display="var(--is-visible--non-mobile)" d="M18 16l-6 6m0 0l-6-6m6 6V2" fill="none" stroke="currentColor" stroke-width="1.2"/><path display="var(--is-visible--only-mobile)" d="M16 14.667l-4 4m0 0l-4-4m4 4V5.333" fill="none" stroke="currentColor" stroke-width="1.2"/></symbol><symbol id="btn-arrow-left"><path display="var(--is-visible--non-mobile)" d="M8 6l-6 6m0 0l6 6m-6-6h20" fill="none" stroke="currentColor" stroke-width="1.2"/><path display="var(--is-visible--only-mobile)" d="M9.333 8l-4 4m0 0l4 4m-4-4h13.334" fill="none" stroke="currentColor" stroke-width="1.2"/></symbol><symbol id="btn-arrow-right-xl"><path d="M55 24.999l6 6m0 0l-6 6m6-6H1" fill="none" stroke="currentColor" stroke-width="1.2"/></symbol><symbol id="btn-arrow-right-xxl"><path display="var(--is-visible--non-mobile)" d="M233.025 114l5.975 6m0 0l-5.975 6m5.975-6H0" fill="none" stroke="currentColor" stroke-width="1.2"/><path display="var(--is-visible--only-mobile)" d="M152.5 114l6 6m0 0l-6 6m6-6H79" fill="none" stroke="currentColor" stroke-width="1.2"/></symbol><symbol id="btn-arrow-right"><path display="var(--is-visible--non-mobile)" d="M16 6l6 6m0 0l-6 6m6-6H2" fill="none" stroke="currentColor" stroke-width="1.2"/><path display="var(--is-visible--only-mobile)" d="M14.667 8l4 4m0 0l-4 4m4-4H5.333" fill="none" stroke="currentColor" stroke-width="1.2"/></symbol><symbol id="burger"><path d="M1 11.5h16M1 6.5h16" fill="none" stroke="currentColor" stroke-width="1.2"/></symbol><symbol id="check-mark"><path display="var(--is-visible--non-mobile)" d="M1 46l10 15L41 1" fill="none" stroke="currentColor" stroke-width="1.2"/><path display="var(--is-visible--only-mobile)" d="M1.205 16.224l3.341 5.012L14.57 1.19" fill="none" stroke="currentColor" stroke-width="1.2"/></symbol><symbol id="close-md"><path d="M5 24.373L24.373 5M5 5.16l19.373 19.372" fill="none" stroke="currentColor" stroke-width="1.2"/></symbol><symbol id="close-xs"><path d="M4.286 13.642l9.428-9.428m-9.428 0l9.428 9.428" fill="none" stroke="currentColor" stroke-width="1.2"/></symbol><symbol id="close"><path d="M41 41L21 21m0 0L1 1m20 20L1 41m20-20L41 1" fill="none" stroke="currentColor" stroke-width="1.2"/></symbol><symbol id="example-arrow"><path d="M8 4l6 6-6 6" stroke="currentColor" stroke-width="2" stroke-linecap="round" stroke-linejoin="round" fill="none"/></symbol><symbol id="facebook"><path d="M3.665 20l-.029-9.09H0V7.272h3.636V5c0-3.374 2.09-5 5.1-5 1.441 0 2.68.107 3.041.155v3.526l-2.087.001c-1.637 0-1.954.778-1.954 1.92v1.67H12.5l-1.818 3.637H7.736V20H3.665z" fill="currentColor"/></symbol><symbol id="file"><path d="M11.91 3.864v8.886c0 1.708-1.303 3.09-2.91 3.09-1.607 0-2.91-1.382-2.91-3.09V3.09c0-1.065.815-1.93 1.82-1.93 1.003 0 1.817.865 1.817 1.93v8.114c0 .425-.323.773-.727.773-.404 0-.727-.348-.727-.773v-7.34H7.182v7.34c0 1.067.814 1.932 1.818 1.932s1.818-.865 1.818-1.931V3.09C10.818 1.383 9.516 0 7.91 0 6.302 0 5 1.383 5 3.09v9.66C5 15.1 6.793 17 9 17s4-1.9 4-4.25V3.864h-1.09z" fill="currentColor"/></symbol><symbol id="nav-down"><path d="M9 4L5 8 1 4" stroke="currentColor" fill="none" stroke-width="1.2"/></symbol><symbol id="pause"><path d="M5 1v16M14 1v16" fill="none" stroke="currentColor" stroke-width="1.2"/></symbol><symbol id="play-xs"><path d="M16 9L5 2v14l11-7z" fill="none" stroke="currentColor" stroke-width="1.2"/></symbol><symbol id="success"><path d="M4.5 8.5l4 4L15 6" stroke="currentColor" fill="none" stroke-width="1.2"/></symbol><symbol id="twitter"><path d="M20 2.125c-.75.375-1.5.5-2.375.625.875-.5 1.5-1.25 1.75-2.25-.75.5-1.625.75-2.625 1-.75-.75-1.875-1.25-3-1.25-2.125 0-4 1.875-4 4.125 0 .375 0 .625.125.875C6.5 5.125 3.375 3.5 1.375 1c-.375.625-.5 1.25-.5 2.125 0 1.375.75 2.625 1.875 3.375-.625 0-1.25-.25-1.875-.5 0 2 1.375 3.625 3.25 4-.375.125-.75.125-1.125.125-.25 0-.5 0-.75-.125.5 1.625 2 2.875 3.875 2.875C4.75 14 3 14.625 1 14.625H0C1.875 15.75 4 16.5 6.25 16.5c7.5 0 11.625-6.25 11.625-11.625v-.5C18.75 3.75 19.5 3 20 2.125z" fill="currentColor"/></symbol><symbol id="vk"><path fill-rule="evenodd" clip-rule="evenodd" d="M21.873.972c.166-.549 0-.947-.736-.947h-2.443c-.617 0-.901.349-1.068.722 0 0-1.257 3.189-3.012 5.257-.57.597-.83.797-1.14.797-.165 0-.379-.2-.379-.748V.947c0-.648-.19-.947-.711-.947H8.54a.602.602 0 00-.616.598c0 .623.877.772.972 2.516V6.9c0 .822-.142.972-.45.972-.83 0-2.847-3.214-4.057-6.876C4.152.274 3.914 0 3.298 0H.83C.12 0 0 .349 0 .722c0 .673.83 4.06 3.867 8.545 2.016 3.064 4.887 4.708 7.473 4.708 1.566 0 1.755-.374 1.755-.996v-2.317c0-.747.143-.872.64-.872.357 0 .997.2 2.444 1.67 1.66 1.743 1.946 2.54 2.87 2.54h2.444c.712 0 1.044-.374.854-1.096-.213-.723-1.02-1.769-2.064-3.014-.569-.698-1.423-1.47-1.684-1.844-.356-.498-.26-.697 0-1.146-.024 0 2.965-4.434 3.274-5.928z" fill="currentColor"/></symbol><symbol id="volume-mute"><path d="M12.504 19.783L6.832 14.95a1 1 0 00-.649-.239H3a1 1 0 01-1-1V9.29a1 1 0 011-1h3.183a1 1 0 00.649-.239l5.672-4.833a.907.907 0 011.496.69v15.186a.907.907 0 01-1.496.69z" fill="none" stroke="currentColor"/><path d="M16.889 7.686a.5.5 0 10-.778.628l.778-.628zm-.797 6.025a.5.5 0 00.816.578l-.816-.578zm.02-5.397c.664.823 1.62 3.079-.02 5.397l.816.578a5.5 5.5 0 00-.02-6.603l-.777.628zM19.427 6.74a.5.5 0 10-.854.52l.854-.52zm-.869 8.026a.5.5 0 00.884.468l-.884-.468zm.015-7.507c.69 1.139 1.692 4.29-.015 7.507l.884.468c1.915-3.61.805-7.143-.015-8.493l-.854.518z" fill="currentColor"/><path d="M21.45 5.782a.5.5 0 00-.9.436l.9-.436zm-.91 10.023a.5.5 0 00.92.39l-.92-.39zm.01-9.587c.708 1.46 1.731 5.484-.01 9.587l.92.39c1.881-4.43.79-8.762-.01-10.413l-.9.436z" fill="currentColor"/></symbol><symbol id="volume-muted"><path d="M12.504 19.783L6.832 14.95a1 1 0 00-.649-.239H3a1 1 0 01-1-1V9.29a1 1 0 011-1h3.183a1 1 0 00.649-.239l5.672-4.833a.907.907 0 011.496.69v15.186a.907.907 0 01-1.496.69z" fill="none" stroke="currentColor"/><path d="M16.889 7.686a.5.5 0 10-.778.628l.778-.628zm-.797 6.025a.5.5 0 00.816.578l-.816-.578zm.02-5.397c.664.823 1.62 3.079-.02 5.397l.816.578a5.5 5.5 0 00-.02-6.603l-.777.628zM19.427 6.74a.5.5 0 10-.854.52l.854-.52zm-.869 8.026a.5.5 0 00.884.468l-.884-.468zm.015-7.507c.69 1.139 1.692 4.29-.015 7.507l.884.468c1.915-3.61.805-7.143-.015-8.493l-.854.518z" fill="currentColor"/><path d="M21.45 5.782a.5.5 0 00-.9.436l.9-.436zm-.91 10.023a.5.5 0 00.92.39l-.92-.39zm.01-9.587c.708 1.46 1.731 5.484-.01 9.587l.92.39c1.881-4.43.79-8.762-.01-10.413l-.9.436zM1.854 1.646a.5.5 0 10-.708.708l.708-.708zm19.292 20.708a.5.5 0 00.708-.708l-.708.708zm-20-20l20 20 .708-.708-20-20-.708.708z" fill="currentColor"/></symbol><symbol id="work-consulting"><path display="var(--is-visible--non-mobile)" d="M1 23V1.5h32V23H16.429l-7.286 8.5V23M56 36V14.5H33M50.857 36v8.5L43.571 36H24V23" fill="none" stroke="currentColor" stroke-width="1.2"/><path display="var(--is-visible--only-mobile)" d="M1 23V1.5h32V23H16.429l-7.286 8.5V23M56 36V14.5H33M50.857 36v8.5L43.571 36H24V23" fill="none" stroke="currentColor" stroke-width="2.8"/></symbol><symbol id="work-development"><path display="var(--is-visible--non-mobile)" d="M43 1v14M15 51v6m42-42H15v28m28-20v20H1" fill="none" stroke="currentColor" stroke-width="1.2" stroke-miterlimit="10" stroke-linecap="square"/><path display="var(--is-visible--only-mobile)" d="M43 1v14M15 51v6m42-42H15v28m28-20v20H1" fill="none" stroke="currentColor" stroke-width="2.8" stroke-miterlimit="10" stroke-linecap="square"/></symbol><symbol id="work-investment"><path display="var(--is-visible--non-mobile)" d="M13 29l8-16 18 14L57 1M13 29H1m12 0l26 16 18-14M1 53l8-16" fill="none" stroke="currentColor" stroke-width="1.2" stroke-miterlimit="10" stroke-linecap="square"/><path display="var(--is-visible--only-mobile)" d="M13 29l8-16 18 14L57 1M13 29H1m12 0l26 16 18-14M1 53l8-16" fill="none" stroke="currentColor" stroke-width="2.8" stroke-miterlimit="10" stroke-linecap="square"/></symbol><symbol id="work-management"><path display="var(--is-visible--non-mobile)" d="M22.268 20.674l15.99-8.212M38.258 41.538l-15.99-8.211" fill="none" stroke="currentColor" stroke-width="1.2" stroke-miterlimit="10"/><path display="var(--is-visible--non-mobile)" d="M9.947 35.526a8.526 8.526 0 100-17.052 8.526 8.526 0 000 17.052zM45 16.579a7.579 7.579 0 100-15.158 7.579 7.579 0 000 15.158zM45 52.579a7.579 7.579 0 100-15.158 7.579 7.579 0 000 15.158z" fill="none" stroke="currentColor" stroke-width="1.2" stroke-miterlimit="10" stroke-linecap="square"/><path display="var(--is-visible--only-mobile)" d="M22.268 20.674l15.99-8.212M38.258 41.538l-15.99-8.211" fill="none" stroke="currentColor" stroke-width="2.8" stroke-miterlimit="10"/><path display="var(--is-visible--only-mobile)" d="M9.947 35.526a8.526 8.526 0 100-17.052 8.526 8.526 0 000 17.052zM45 16.579a7.579 7.579 0 100-15.158 7.579 7.579 0 000 15.158zM45 52.579a7.579 7.579 0 100-15.158 7.579 7.579 0 000 15.158z" fill="none" stroke="currentColor" stroke-width="2.8" stroke-miterlimit="10" stroke-linecap="square"/></symbol><symbol id="zoom-in"><path display="var(--is-visible--non-mobile)" d="M12 22V2M2 12h20" fill="none" stroke="currentColor" stroke-width="1.2"/><path display="var(--is-visible--only-mobile)" d="M12 18.667V5.333M5.333 12h13.334" fill="none" stroke="currentColor" stroke-width="1.2"/></symbol><symbol id="zoom-out"><path display="var(--is-visible--only-mobile)" d="M5 12h13.333" fill="none" stroke="currentColor" stroke-width="1.2"/><path display="var(--is-visible--non-mobile)" d="M2 12h20" fill="none" stroke="currentColor" stroke-width="1.2"/></symbol></svg>