<svg width="99" height="102" viewBox="0 0 99 102" fill="none" xmlns="http://www.w3.org/2000/svg">
<path d="M85.8054 22.0345C80.1427 22.0345 75.5464 26.6159 75.5464 32.2586C75.5464 33.0554 75.646 33.8522 75.8126 34.5822L59.6907 41.2212C58.2249 38.5654 55.9267 36.4079 53.1958 35.0796L58.7582 19.378C58.9582 19.4113 59.1576 19.4113 59.3576 19.4113C63.0548 19.4113 66.0862 16.3902 66.0862 12.7057C66.0862 9.02107 63.0548 6 59.3576 6C55.6605 6 52.6291 9.02107 52.6291 12.7057C52.6291 15.0293 53.828 17.0877 55.6271 18.2824L50.0313 33.9841C48.9656 33.7513 47.8329 33.6187 46.7002 33.6187C44.3351 33.6187 42.1031 34.1827 40.1048 35.1455L35.0093 27.2457C36.8412 25.5528 38.0074 23.0964 38.0074 20.4074C38.0074 15.2619 33.8104 11.0459 28.614 11.0459C23.4176 11.0459 19.2206 15.2619 19.2206 20.4074C19.2206 25.5529 23.4176 29.7688 28.614 29.7688C29.8798 29.7688 31.1122 29.5035 32.2114 29.0387L37.3075 36.9393C34.8429 38.9309 33.0436 41.6859 32.2776 44.8731L12.6257 42.3499C12.1594 39.8937 9.96085 38.0013 7.36309 38.0013C4.39862 38.0013 2 40.3916 2 43.3462C2 46.3005 4.39844 48.691 7.36309 48.691C9.49458 48.691 11.3272 47.4295 12.1928 45.6372L31.8447 48.1603V48.3931C31.8447 52.0117 33.144 55.2981 35.309 57.8872L21.0858 72.7587C19.254 71.4638 17.0555 70.7337 14.6571 70.7337C8.49459 70.7337 3.46537 75.7465 3.46537 81.8874C3.46537 88.0289 8.49531 93.041 14.6571 93.041C20.8196 93.041 25.8488 88.0282 25.8488 81.8874C25.8488 79.2982 24.9831 76.9414 23.4838 75.049L37.7069 60.1775C39.7722 61.7378 42.237 62.7666 44.9352 63.0987L44.4354 71.962C42.237 72.6261 40.6714 74.6845 40.6714 77.0741C40.6714 80.0284 43.0698 82.4189 46.0345 82.4189C48.9991 82.4189 51.3975 80.0286 51.3975 77.0741C51.3975 74.7505 49.8989 72.7587 47.7666 72.028L48.2664 63.1314C50.0647 62.932 51.7642 62.4339 53.3297 61.6378L67.7195 83.7464C66.6202 84.9412 65.9211 86.5348 65.9211 88.2943C65.9211 91.9789 68.9525 95 72.6496 95C76.3468 95 79.3782 91.9789 79.3782 88.2943C79.3782 84.6098 76.3468 81.5887 72.6496 81.5887C71.8836 81.5887 71.1838 81.7214 70.4846 81.9541L56.0948 59.8456C57.4603 58.7167 58.6599 57.3224 59.5257 55.7623L71.8167 61.0737C71.8167 61.2397 71.7832 61.4057 71.7832 61.5718C71.7832 64.5262 74.1817 66.9166 77.1463 66.9166C80.1109 66.9166 82.5094 64.5263 82.5094 61.5718C82.5094 58.6174 80.1109 56.2269 77.1463 56.2269C75.5473 56.2269 74.1149 56.9244 73.1495 58.0191L60.8586 52.7077C61.2915 51.3469 61.4915 49.886 61.4915 48.3924C61.4915 46.9648 61.2915 45.6039 60.9255 44.3091L77.0474 37.6367C78.8458 40.5244 82.0774 42.45 85.741 42.45C91.4037 42.45 96 37.8686 96 32.2259C95.9986 26.5824 91.4351 22.0343 85.8058 22.0343L85.8054 22.0345ZM59.3245 9.32064C61.1898 9.32064 62.7219 10.8475 62.7219 12.7065C62.7219 14.5654 61.1898 16.0923 59.3245 16.0923C57.4593 16.0923 55.9272 14.5654 55.9272 12.7065C55.9272 10.8475 57.4592 9.32064 59.3245 9.32064ZM22.5511 20.4076C22.5511 17.0878 25.2829 14.366 28.6133 14.366C31.9445 14.366 34.6763 17.0885 34.6763 20.4076C34.6763 23.7275 31.9445 26.4492 28.614 26.4492C25.2829 26.4492 22.5511 23.7275 22.5511 20.4076ZM7.36262 45.3722C6.22992 45.3722 5.3307 44.4761 5.3307 43.3472C5.3307 42.2183 6.22989 41.3222 7.36262 41.3222C8.49532 41.3222 9.39455 42.2183 9.39455 43.3472C9.39455 44.476 8.49466 45.3722 7.36262 45.3722ZM76.079 88.2608C76.079 90.1198 74.5469 91.6467 72.6817 91.6467C70.8164 91.6467 69.2843 90.1198 69.2843 88.2608C69.2843 86.4019 70.8164 84.875 72.6817 84.875C74.5462 84.875 76.079 86.3359 76.079 88.2608ZM77.211 59.5137C78.3437 59.5137 79.2429 60.4098 79.2429 61.5387C79.2429 62.6676 78.3438 63.5637 77.211 63.5637C76.0783 63.5637 75.1791 62.6676 75.1791 61.5387C75.1791 60.4098 76.079 59.5137 77.211 59.5137ZM14.6562 89.6889C10.3262 89.6889 6.79496 86.1704 6.79496 81.8543C6.79496 77.539 10.3254 74.0198 14.6562 74.0198C18.9863 74.0198 22.5175 77.5382 22.5175 81.8543C22.5175 86.1704 18.9863 89.6889 14.6562 89.6889ZM46.0336 79.066C44.9009 79.066 44.0016 78.1699 44.0016 77.041C44.0016 75.9122 44.9008 75.016 46.0336 75.016C47.1663 75.016 48.0655 75.9121 48.0655 77.041C48.0655 78.1699 47.1663 79.066 46.0336 79.066ZM46.6999 59.8793C40.3381 59.8793 35.175 54.7338 35.175 48.3936C35.175 42.0534 40.3381 36.9079 46.6999 36.9079C53.0618 36.9079 58.2248 42.0534 58.2248 48.3936C58.2248 54.7338 53.0618 59.8793 46.6999 59.8793ZM85.8038 39.1312C81.9735 39.1312 78.8753 36.0442 78.8753 32.2262C78.8753 28.409 81.9728 25.3212 85.8038 25.3212C89.6341 25.3212 92.7324 28.4083 92.7324 32.2262C92.7324 36.0442 89.6012 39.1312 85.8038 39.1312Z" fill="white"/>
</svg>
