<svg width="87" height="87" viewBox="0 0 87 87" fill="none" xmlns="http://www.w3.org/2000/svg">
<path fill-rule="evenodd" clip-rule="evenodd" d="M87 43.5C87 67.5244 67.5244 87 43.5 87C32.7137 87 22.8443 83.0742 15.2428 76.5734C14.6981 79.0506 13.8073 83.4071 13.8747 84.3665C13.6018 83.482 13.2763 81.3441 13.6546 78.2927C14.518 74.0251 15.4302 69.9541 16.447 67.7214C22.7474 52.3012 31.8147 52.7269 42.853 53.2451C46.1107 53.398 49.54 53.559 53.1206 53.3231C70.8216 53.6357 75.1484 32.7083 75.0992 22.2056C64.5742 21.9187 40.8479 21.3583 30.1425 21.4115C19.4371 21.4648 15.0777 33.2294 14.2361 39.105C15.7911 36.507 20.5036 32.854 28.63 32.9975L60.6126 33.5624C61.2361 36.2325 60.1891 41.5929 51.0124 41.6732L29.7912 41.2984C24.4626 41.1033 13.5915 45.9805 12.7365 67.05L12.4124 73.9271C4.73367 66.0828 0 55.3442 0 43.5C0 19.4756 19.4756 0 43.5 0C67.5244 0 87 19.4756 87 43.5Z" fill="url(#paint0_linear_92_13)"/>
<defs>
<linearGradient id="paint0_linear_92_13" x1="79.4557" y1="19.69" x2="3.63838" y2="82.3985" gradientUnits="userSpaceOnUse">
<stop stop-color="#2B95E9"/>
<stop offset="1" stop-color="#00ECC8"/>
</linearGradient>
</defs>
</svg>
