<svg width="105" height="102" viewBox="0 0 105 102" fill="none" xmlns="http://www.w3.org/2000/svg">
<path d="M104.245 35.3389L93.7083 17.0633V7.08875C93.7083 6.34925 93.1124 5.75 92.3788 5.75H44.7C43.9657 5.75 43.3706 6.34925 43.3706 7.08875V17.1914L37.2301 27.8417H12.4304C11.6961 27.8417 11.101 28.4409 11.101 29.1804V33.3147C9.72885 33.4852 8.46505 34.1538 7.54798 35.1961C6.63085 36.2384 6.12361 37.5819 6.12201 38.9748V44.1513C6.12201 44.8908 6.71708 45.4901 7.45143 45.4901H8.54503L13.1142 92.1183H13.1134C13.1807 92.8037 13.7528 93.3256 14.4365 93.3256H103.02C103.74 93.3933 104.53 92.7909 104.35 91.5526L104.424 36.0136C104.424 35.7769 104.362 35.5442 104.244 35.3394L104.245 35.3389ZM83.6426 35.3692L92.4152 20.1536L101.187 35.37L83.6426 35.3692ZM83.0649 38.0467H91.043V80.9275L83.0649 88.8015V38.0467ZM93.7019 38.0467H101.762L101.695 88.7325L93.7019 80.8442V38.0467ZM46.0291 8.4279H91.0481V16.2134H46.0291V8.4279ZM45.4649 18.8909H90.0686L80.5861 35.3392C80.4682 35.544 80.4065 35.7751 80.4065 36.0117V90.6491H41.9308L43.5886 73.7291C46.4713 77.6665 50.8188 80.2555 55.6341 80.9034C60.4494 81.5513 65.3198 80.2013 69.1276 77.1645C72.9363 74.1267 75.3561 69.6628 75.8334 64.7937C76.3106 59.9256 74.8031 55.0702 71.6576 51.3423C68.513 47.6138 63.9984 45.3323 59.1501 45.02C54.3024 44.7076 49.5363 46.3914 45.9444 49.6848L46.3551 45.4902H47.4487V45.491C48.183 45.491 48.7781 44.8909 48.7781 44.1522V38.9757C48.7765 37.5828 48.2693 36.2393 47.3521 35.197C46.435 34.1547 45.1712 33.4854 43.7991 33.3156V29.1813C43.7991 28.4418 43.2032 27.8426 42.4697 27.8426H40.3053L45.4649 18.8909ZM15.6413 90.6479L14.0167 74.0665H19.5172C21.6268 76.1734 24.4779 77.3552 27.4485 77.3552C30.4199 77.3552 33.2702 76.1734 35.3798 74.0665H40.8811L39.2565 90.6479H15.6413ZM11.7877 35.9452H43.1103C43.9072 35.946 44.6716 36.2656 45.2358 36.8338C45.7992 37.4011 46.1165 38.1709 46.1173 38.9741V42.8118H8.78012V38.9741C8.78091 38.1709 9.09823 37.4011 9.66166 36.8338C10.2259 36.2656 10.9903 35.946 11.7871 35.9452H11.7877ZM27.4488 74.6767C25.1603 74.6767 22.9651 73.7611 21.3469 72.1314C19.7287 70.501 18.8202 68.2913 18.8202 65.9867C18.8202 63.6813 19.7294 61.4716 21.3478 59.842C22.966 58.2124 25.1611 57.2967 27.4496 57.2967C29.7381 57.2967 31.9325 58.2123 33.5515 59.842C35.1697 61.4716 36.079 63.6813 36.079 65.9867C36.0759 68.2905 35.1659 70.4994 33.5484 72.1281C31.9302 73.7577 29.7375 74.674 27.449 74.6765L27.4488 74.6767ZM38.7379 65.9867C38.7395 64.126 38.2852 62.2947 37.4148 60.6539H42.1961L41.1436 71.3878H37.3793C38.2727 69.7295 38.7396 67.8729 38.738 65.9865L38.7379 65.9867ZM45.4981 54.2224C48.0936 50.486 52.2039 48.1049 56.7151 47.7232C61.2271 47.3407 65.6745 48.9982 68.8524 52.2455C72.031 55.4927 73.6121 59.9942 73.1675 64.5324C72.7228 69.0698 70.299 73.1736 66.5513 75.7324C62.8044 78.292 58.1214 79.0419 53.7706 77.7795C49.4198 76.5165 45.851 73.3721 44.0311 69.1973L45.4981 54.2224ZM12.7027 60.6539H17.484C15.7075 64.012 15.7209 68.0426 17.5196 71.3878H13.7545L12.7027 60.6539ZM41.1386 30.517V33.2663H13.7602V30.517H41.1386ZM43.682 45.488L42.4586 57.9758H35.4506C33.3347 55.8275 30.4542 54.6186 27.4488 54.6186C24.4441 54.6186 21.5637 55.8275 19.4478 57.9758H12.4398L11.2164 45.488H43.682ZM84.9897 90.6454L92.4377 83.35L99.8365 90.6454H84.9897Z" fill="white"/>
</svg>
