<svg width="99" height="102" viewBox="0 0 99 102" fill="none" xmlns="http://www.w3.org/2000/svg">
<path d="M89.8223 7.40002H89.8313C90.8214 7.40469 91.6 8.18321 91.6 9.14673L91.5983 22.1439C91.5983 23.1097 90.8158 23.8899 89.8215 23.8899H77.0002C76.0066 23.8899 75.2234 23.1103 75.2234 22.144V17.7322V17.3322H74.8234H51.1158H50.6964L50.7162 17.7511C50.7492 18.4497 50.9932 19.4418 51.3878 20.6436C51.7856 21.855 52.3477 23.3122 53.0378 24.9542C54.4184 28.2387 56.3201 32.2827 58.4688 36.616C62.7666 45.2836 68.062 55.1275 72.1772 62.4064L72.1794 62.4102C72.5622 63.0701 72.3673 64.0477 71.788 64.5238L71.7847 64.5266C64.323 70.7965 62.4663 76.97 61.97 80.153L61.898 80.6146H62.3652H65.147C66.1406 80.6146 66.9238 81.3942 66.9238 82.3606V92.8541C66.9238 93.8198 66.1413 94.6 65.147 94.6H32.9723C31.9787 94.6 31.1955 93.8204 31.1955 92.8541V82.3606C31.1955 81.3949 31.978 80.6146 32.9723 80.6146H35.7541H36.2214L36.1493 80.1529C35.6524 76.972 33.7984 70.8043 26.3473 64.5373C25.7306 63.9212 25.5694 63.05 25.94 62.4099L25.942 62.4064C30.0575 55.1279 35.3529 45.3138 39.6507 36.661C41.7993 32.3351 43.701 28.2947 45.0816 25.0043C45.7718 23.3594 46.3339 21.8969 46.7317 20.6771C47.1265 19.4665 47.3702 18.4637 47.4031 17.7507L47.4224 17.3322H47.0035H23.1749H22.7749V17.7322V22.144C22.7749 23.1097 21.9924 23.8899 20.9981 23.8899L8.17683 23.8891C7.18317 23.8891 6.4 23.1095 6.4 22.1431V9.14595C6.4 8.18025 7.18248 7.40003 8.17677 7.40002C8.17678 7.40002 8.17679 7.40002 8.1768 7.40002L20.8775 7.40085H20.8776C21.8712 7.40085 22.6544 8.18041 22.6544 9.14678V13.5585V13.9585L23.0544 13.9585L74.8242 13.9577L75.2242 13.9577V13.5577V9.14595C75.2242 8.18024 76.0067 7.40002 77.001 7.40002H89.8223ZM18.8202 20.3972H19.2202V19.9972V11.1731V10.7731H18.8202H10.2318H9.83178V11.1731V19.9972V20.3972H10.2318H18.8202ZM63.09 90.9885H63.49V90.5885V84.2687V83.8687H63.09H35.1488H34.7488V84.2687V90.5885V90.9885H35.1488H63.09ZM58.1314 80.495V80.1401L58.5275 80.1506C59.0008 76.7645 60.782 69.9406 68.3208 62.9793L68.5492 62.7684L68.4013 62.4951C68.2382 62.1937 68.0572 61.8596 67.86 61.4956C64.5427 55.3723 56.6175 40.7433 51.6004 29.7281L50.8364 29.8939L50.8372 51.119L50.8372 51.4046L51.1075 51.4973C53.7466 52.4025 55.6751 54.7676 55.6751 57.6775C55.6751 61.2672 52.7149 64.1935 49.0596 64.1935C45.4042 64.1935 42.444 61.2674 42.444 57.6775C42.444 54.7561 44.3814 52.2872 46.9969 51.5021L47.2819 51.4165V51.1189V30.0129L46.5165 29.8503C41.3241 41.5174 32.624 57.2411 29.7188 62.4916L29.5669 62.7662L29.7975 62.9791C37.3371 69.9404 39.1183 76.7652 39.5916 80.1504L39.6398 80.495H39.9878H58.1314ZM87.766 20.397H88.166V19.997V11.2933V10.8933H87.766H79.1776H78.7775V11.2933V15.3473V15.705V16.0626V19.997V20.397H79.1776H87.766ZM52.2414 57.6775C52.2414 55.9017 50.8479 54.5351 49.0596 54.5351L46.2778 57.6775H45.8778C45.8778 57.6775 45.8778 57.6776 45.8778 57.6777C45.8779 59.4534 47.2713 60.8198 49.0596 60.8198C50.8469 60.8198 52.2414 59.4542 52.2414 57.6775Z" fill="white" stroke="#013643" stroke-width="0.8"/>
</svg>
